<svg xmlns="http://www.w3.org/2000/svg" viewBox="0 0 1000 1000">
<circle cx="500" cy="500" r="488" fill="#FFFFFF"/>
<circle cx="500" cy="500" r="480" fill="none" stroke="#0D175F" stroke-width="20"/>
<circle cx="500" cy="500" r="433" fill="none" stroke="#B8C9D9" stroke-width="1.8"/>
<path d="M 463.5 98.3 L 451.2 100.9 L 431.6 106.8 L 410.2 116.5 L 397.1 124.3 L 384.1 134.1 L 365.2 153.0 L 356.8 164.1 L 348.3 177.7 L 340.5 194.0 L 334.6 210.9 L 330.7 232.4 L 330.7 254.6 L 332.0 262.4 L 335.9 276.0 L 341.8 287.8 L 348.3 296.9 L 357.4 306.0 L 363.3 310.5 L 374.3 316.4 L 392.6 321.6 L 410.2 321.6 L 418.6 319.7 L 431.6 314.5 L 446.0 304.7 L 457.7 293.0 L 467.4 279.9 L 468.1 284.5 L 464.8 304.7 L 462.2 311.8 L 455.1 321.6 L 436.8 338.5 L 440.8 339.8 L 445.3 339.8 L 456.4 329.4 L 464.2 319.0 L 465.5 319.0 L 464.8 324.2 L 455.7 349.6 L 453.8 358.1 L 453.1 367.2 L 460.9 356.1 L 470.1 333.3 L 472.7 329.4 L 484.4 354.8 L 488.3 357.4 L 496.7 358.7 L 494.1 350.3 L 483.1 331.4 L 481.8 324.9 L 483.1 320.3 L 487.6 320.3 L 497.4 322.9 L 499.3 322.3 L 492.8 316.4 L 480.5 307.9 L 477.9 305.3 L 475.3 299.5 L 475.3 291.7 L 476.6 287.1 L 482.4 279.9 L 485.7 278.6 L 490.2 278.6 L 496.7 281.2 L 506.5 291.0 L 509.8 299.5 L 509.1 339.2 L 511.7 348.3 L 516.3 354.2 L 517.6 354.2 L 520.2 352.2 L 520.2 346.4 L 513.0 321.0 L 513.7 319.0 L 538.4 330.1 L 547.5 332.7 L 551.4 332.7 L 557.9 330.1 L 562.5 326.8 L 568.4 313.8 L 563.8 313.2 L 547.5 316.4 L 535.8 316.4 L 529.3 314.5 L 524.1 309.2 L 521.5 302.1 L 521.5 298.8 L 522.1 298.2 L 537.8 306.0 L 538.4 304.7 L 535.2 299.5 L 529.3 293.6 L 509.1 279.9 L 491.5 265.0 L 495.4 261.1 L 500.0 258.5 L 513.0 258.5 L 529.3 261.1 L 535.2 263.0 L 544.9 268.9 L 548.8 272.1 L 557.3 282.6 L 563.8 287.8 L 565.8 285.2 L 565.8 281.2 L 563.2 277.3 L 544.3 260.4 L 544.9 259.8 L 578.1 270.8 L 584.0 272.1 L 591.1 272.1 L 588.5 268.9 L 584.6 266.3 L 565.1 258.5 L 557.3 253.3 L 557.9 251.3 L 571.6 246.1 L 581.4 240.2 L 583.3 236.3 L 583.3 231.8 L 582.0 227.9 L 560.5 240.9 L 554.0 243.5 L 546.9 244.1 L 546.2 240.9 L 548.8 229.8 L 548.2 225.9 L 535.2 244.1 L 530.6 248.7 L 524.7 251.3 L 516.9 251.3 L 510.4 248.7 L 505.2 242.2 L 504.6 237.6 L 505.9 232.4 L 509.8 226.6 L 515.0 221.4 L 520.2 218.1 L 526.7 216.1 L 550.8 217.4 L 565.1 216.8 L 572.9 214.8 L 578.8 210.9 L 578.8 206.4 L 575.5 205.7 L 565.1 207.7 L 547.5 212.9 L 545.6 212.2 L 554.7 194.0 L 557.9 182.3 L 557.9 171.9 L 556.6 168.0 L 552.7 162.8 L 548.2 160.2 L 540.4 157.6 L 539.7 158.2 L 543.6 182.9 L 543.0 190.8 L 541.0 196.6 L 535.8 201.8 L 525.4 205.7 L 524.7 204.4 L 532.6 187.5 L 527.3 190.1 L 522.1 194.7 L 505.9 218.1 L 494.8 228.5 L 489.6 227.9 L 485.7 223.3 L 485.0 220.7 L 485.7 208.3 L 488.3 194.7 L 492.2 186.2 L 498.0 178.4 L 513.7 164.7 L 511.7 160.2 L 506.5 161.5 L 497.4 169.9 L 487.6 182.3 L 487.0 181.6 L 491.5 164.7 L 492.8 163.4 L 498.0 146.5 L 498.7 134.8 L 491.5 144.5 L 486.3 158.9 L 479.8 171.2 L 478.5 170.6 L 472.0 153.6 L 466.8 145.2 L 462.9 143.2 L 456.4 142.6 L 457.7 150.4 L 470.1 171.2 L 470.1 180.3 L 466.1 181.0 L 453.8 179.0 L 454.4 180.3 L 471.4 192.1 L 475.9 197.3 L 477.9 203.1 L 477.2 210.9 L 474.6 216.1 L 471.4 220.1 L 468.1 222.0 L 463.5 222.0 L 457.7 220.1 L 452.5 216.8 L 446.0 209.6 L 443.4 203.1 L 442.7 158.9 L 439.5 151.7 L 433.6 147.1 L 431.6 147.1 L 432.3 154.9 L 438.2 177.1 L 438.2 182.3 L 426.4 176.4 L 410.2 171.2 L 401.7 170.6 L 395.2 171.9 L 390.6 174.5 L 385.4 182.9 L 384.1 188.2 L 406.9 184.9 L 415.4 184.9 L 423.2 186.8 L 428.4 192.1 L 431.6 201.8 L 428.4 201.8 L 414.7 195.3 L 418.0 201.8 L 425.8 209.0 L 446.0 222.0 L 459.0 235.0 L 452.5 243.5 L 421.2 238.9 L 408.2 232.4 L 400.4 225.3 L 391.9 214.8 L 384.8 216.1 L 388.7 222.7 L 397.1 231.1 L 408.2 240.2 L 407.6 240.9 L 375.7 230.5 L 366.5 228.5 L 360.7 228.5 L 367.2 234.4 L 390.0 243.5 L 397.1 247.4 L 372.4 259.1 L 369.8 261.7 L 368.5 265.0 L 368.5 272.8 L 374.3 270.8 L 393.2 259.1 L 399.7 257.2 L 406.9 257.2 L 407.6 258.5 L 403.6 270.8 L 403.6 274.7 L 410.2 267.6 L 418.6 255.2 L 423.2 251.3 L 427.7 249.3 L 439.5 250.0 L 446.6 255.2 L 449.2 260.4 L 449.2 266.9 L 447.3 272.8 L 443.4 279.3 L 429.0 293.6 L 419.9 299.5 L 411.5 302.7 L 404.9 304.0 L 393.2 304.0 L 382.8 301.4 L 372.4 296.2 L 365.2 291.0 L 356.8 281.2 L 350.3 269.5 L 347.0 260.4 L 345.7 253.3 L 345.1 231.1 L 347.7 216.1 L 352.9 200.5 L 363.3 181.0 L 375.7 164.7 L 388.0 152.3 L 401.0 141.9 L 413.4 134.1 L 427.7 127.0 L 447.9 119.8 L 465.5 116.5 L 487.0 115.9 L 499.3 117.2 L 513.7 120.4 L 526.7 125.0 L 541.7 132.8 L 559.2 145.8 L 570.3 156.9 L 580.1 169.3 L 593.1 192.7 L 599.6 210.9 L 604.2 236.3 L 604.2 257.8 L 599.6 285.2 L 589.8 311.8 L 583.3 324.2 L 574.9 337.2 L 563.2 351.6 L 554.7 360.0 L 536.5 375.0 L 517.6 386.7 L 492.8 397.8 L 470.7 404.9 L 439.5 411.5 L 411.5 414.1 L 381.5 414.1 L 411.5 432.3 L 453.1 452.5 L 495.4 467.4 L 529.9 475.3 L 541.7 446.6 L 548.8 438.2 L 556.6 432.9 L 561.2 431.6 L 567.1 431.6 L 590.5 436.2 L 607.4 437.5 L 617.2 435.5 L 624.3 431.0 L 627.0 427.1 L 628.9 420.6 L 628.9 410.8 L 627.0 397.8 L 630.2 393.9 L 640.0 388.7 L 644.5 383.5 L 644.5 378.3 L 639.3 370.4 L 648.4 363.9 L 651.7 360.0 L 645.8 342.4 L 656.2 332.7 L 667.3 328.8 L 672.5 325.5 L 675.8 319.0 L 675.8 311.8 L 656.2 283.9 L 649.1 270.8 L 645.2 261.1 L 643.2 249.3 L 644.5 229.8 L 643.9 209.6 L 640.0 188.8 L 630.9 165.4 L 623.0 153.0 L 612.0 139.3 L 599.6 128.3 L 583.3 117.2 L 569.0 110.0 L 549.5 102.9 L 536.5 99.6 L 515.6 96.4 L 491.5 95.7 Z" fill="#0D175F"/>
<path d="M 472.0 240.2 L 478.5 240.9 L 483.1 245.4 L 484.4 249.3 L 483.7 253.3 L 481.8 256.5 L 476.6 259.8 L 472.0 259.8 L 469.4 258.5 L 464.8 253.3 L 464.8 247.4 L 466.1 244.8 Z" fill="#FFFFFF"/>
<text x="500" y="570" text-anchor="middle" font-family="Arial,Helvetica,sans-serif" font-size="54" font-weight="700" fill="#0D175F">Dr Ankush Maindad</text>
<line x1="150" y1="594" x2="456" y2="594" stroke="#1E9DC0" stroke-width="2"/>
<circle cx="500" cy="594" r="7" fill="#1E9DC0"/>
<line x1="544" y1="594" x2="850" y2="594" stroke="#1E9DC0" stroke-width="2"/>
<text x="500" y="651" text-anchor="middle" font-family="Arial,Helvetica,sans-serif" font-size="38" letter-spacing="1" fill="#168DC0">Pediatric Neurologist</text>
<line x1="205" y1="704" x2="418" y2="704" stroke="#0D175F" stroke-width="3"/>
<path d="M 518.9 713.5 L 514.3 718.1 L 509.8 718.8 L 508.5 720.7 L 508.5 722.7 L 509.8 724.0 L 512.4 724.0 L 513.7 722.0 L 518.2 719.4 L 520.2 717.4 L 520.2 715.5 Z M 541.0 701.8 L 543.0 705.7 L 542.3 711.6 L 538.4 715.5 L 533.9 714.8 L 532.6 713.5 L 532.6 712.2 L 531.2 711.6 L 529.9 712.9 L 529.9 717.4 L 530.6 718.1 L 537.1 718.8 L 538.4 720.1 L 537.1 724.0 L 533.9 727.2 L 529.9 728.5 L 526.7 728.5 L 524.1 726.6 L 523.4 722.7 L 520.8 722.0 L 520.2 722.7 L 520.8 727.2 L 518.9 729.8 L 515.0 732.4 L 508.5 732.4 L 503.3 728.5 L 502.0 724.6 L 502.0 710.9 L 505.9 705.7 L 507.8 704.4 L 511.1 703.8 L 512.4 705.1 L 512.4 707.7 L 513.7 709.6 L 516.3 709.6 L 519.5 707.0 L 524.7 707.0 L 527.3 709.6 L 529.9 710.3 L 533.2 707.0 L 532.6 704.4 L 529.9 701.8 L 530.6 701.2 L 539.1 699.9 Z M 512.4 681.6 L 510.4 681.6 L 508.5 684.2 L 508.5 686.2 L 511.1 688.2 L 511.1 690.1 L 509.1 692.1 L 509.1 694.7 L 511.1 694.0 L 513.7 690.8 L 516.3 690.1 L 517.6 688.2 L 516.3 686.2 L 513.0 684.2 Z M 491.5 682.3 L 488.9 681.6 L 487.6 684.9 L 485.0 686.8 L 482.4 687.5 L 481.1 689.5 L 482.4 690.8 L 485.7 691.4 L 490.9 686.8 Z M 503.3 677.7 L 507.8 674.5 L 512.4 674.5 L 516.3 677.7 L 517.6 681.0 L 516.9 682.9 L 517.6 684.9 L 518.9 684.9 L 520.2 682.9 L 520.2 680.3 L 522.1 679.0 L 524.1 679.0 L 526.7 680.3 L 529.3 682.9 L 529.3 685.5 L 524.7 688.2 L 524.1 690.8 L 520.8 693.4 L 520.8 696.6 L 521.5 697.3 L 524.7 696.6 L 526.7 691.4 L 531.2 688.2 L 534.5 688.8 L 537.1 691.4 L 537.8 696.0 L 530.6 698.6 L 529.3 701.8 L 527.3 701.2 L 527.3 703.1 L 524.1 705.1 L 518.2 705.1 L 515.0 701.8 L 510.4 700.5 L 507.2 701.2 L 502.6 703.8 L 502.0 703.1 L 502.0 681.0 Z M 489.6 674.5 L 494.8 675.1 L 497.4 677.1 L 498.7 679.7 L 498.7 694.7 L 497.4 695.3 L 492.8 692.1 L 490.2 692.7 L 488.9 694.0 L 488.3 697.3 L 488.9 697.9 L 492.2 696.0 L 494.8 696.0 L 498.7 698.6 L 498.7 705.1 L 498.0 705.7 L 494.8 703.8 L 488.9 703.8 L 485.0 701.2 L 481.8 704.4 L 479.8 705.1 L 475.9 705.1 L 473.3 703.1 L 470.7 702.5 L 468.1 703.8 L 466.8 707.7 L 469.4 709.6 L 472.7 709.6 L 474.0 707.7 L 481.8 706.4 L 485.7 715.5 L 486.3 715.5 L 485.7 710.3 L 487.6 707.7 L 489.6 706.4 L 495.4 707.7 L 498.7 710.9 L 498.7 726.6 L 497.4 729.2 L 492.8 732.4 L 486.3 732.4 L 483.7 731.1 L 480.5 727.2 L 481.1 724.6 L 483.7 721.4 L 487.6 721.4 L 489.6 723.3 L 492.2 724.0 L 493.5 722.7 L 493.5 720.7 L 491.5 719.4 L 488.9 719.4 L 487.0 717.4 L 482.4 718.1 L 477.9 716.1 L 477.2 716.8 L 478.5 718.8 L 483.1 720.7 L 480.5 721.4 L 476.6 725.3 L 476.6 727.2 L 475.3 728.5 L 470.7 728.5 L 467.4 727.2 L 464.2 724.0 L 462.9 720.1 L 464.2 718.8 L 466.8 718.1 L 470.1 718.8 L 471.4 718.1 L 472.7 716.1 L 472.7 712.2 L 470.7 710.9 L 467.4 715.5 L 462.9 715.5 L 460.3 713.5 L 458.3 710.3 L 458.3 704.4 L 460.3 701.2 L 462.2 699.9 L 466.1 699.9 L 466.8 700.5 L 468.8 699.9 L 467.4 696.6 L 463.5 696.6 L 462.9 696.0 L 462.9 692.7 L 464.2 692.1 L 464.2 690.8 L 468.1 688.2 L 470.7 689.5 L 472.7 689.5 L 474.0 690.8 L 473.3 696.0 L 476.6 697.3 L 479.8 694.0 L 479.8 692.7 L 477.2 692.7 L 475.9 691.4 L 475.3 688.8 L 470.7 684.9 L 474.6 680.3 L 477.2 679.0 L 479.2 679.0 L 480.5 680.3 L 479.8 681.0 L 480.5 684.2 L 483.1 685.5 L 484.4 684.2 L 483.7 683.6 L 484.4 677.7 L 486.3 675.8 Z M 460.9 689.5 L 459.6 692.1 L 459.6 697.3 L 456.4 700.5 L 455.1 704.4 L 455.1 710.9 L 456.4 714.2 L 460.3 718.8 L 459.6 719.4 L 460.3 724.6 L 464.2 729.2 L 467.4 731.1 L 474.6 731.8 L 477.9 730.5 L 483.1 735.0 L 485.0 735.7 L 495.4 735.0 L 500.0 730.5 L 505.9 735.0 L 510.4 736.3 L 516.3 735.7 L 518.9 734.4 L 522.8 730.5 L 527.3 731.8 L 533.2 731.1 L 537.1 729.2 L 539.1 727.2 L 541.0 723.3 L 541.0 718.8 L 544.9 714.2 L 546.2 710.9 L 546.2 704.4 L 544.3 699.9 L 541.0 696.6 L 541.0 691.4 L 539.7 688.8 L 537.1 686.2 L 534.5 685.5 L 528.0 677.1 L 526.0 677.1 L 524.7 675.8 L 519.5 675.8 L 515.6 672.5 L 512.4 671.2 L 505.2 671.9 L 500.7 675.8 L 497.4 672.5 L 494.1 671.2 L 487.0 671.9 L 481.8 675.8 L 477.2 675.8 L 472.0 677.7 L 468.8 681.6 L 468.1 684.2 L 466.8 685.5 L 464.2 686.2 Z" fill="#0D175F" fill-rule="evenodd"/>
<line x1="582" y1="704" x2="795" y2="704" stroke="#0D175F" stroke-width="3"/>
<text x="500" y="814" text-anchor="middle" font-family="Arial,Helvetica,sans-serif" font-size="65" font-weight="800" letter-spacing="7" fill="#0D175F">NEURON</text>
<text x="500" y="879" text-anchor="middle" font-family="Arial,Helvetica,sans-serif" font-size="28" letter-spacing="3" fill="#168DC0">Hospital Latur</text>
</svg>