<svg xmlns="http://www.w3.org/2000/svg" viewBox="0 0 1536 1536">
<defs><linearGradient id="g" x1="0" y1="0" x2="1" y2="1"><stop offset="0" stop-color="#6C5CE7"/><stop offset=".25" stop-color="#00B8D9"/><stop offset=".5" stop-color="#22C55E"/><stop offset=".75" stop-color="#F59E0B"/><stop offset="1" stop-color="#EF476F"/></linearGradient></defs>
<circle cx="768" cy="768" r="748" fill="#fff" stroke="url(#g)" stroke-width="32"/>
<circle cx="768" cy="768" r="716" fill="#fff"/>
<path fill="#262161" d="M 547,158 540,163 529,163 522,168 508,169 505,173 482,179 479,183 472,184 437,204 431,204 427,209 420,210 402,224 396,225 386,235 374,241 361,255 350,260 307,303 301,315 291,324 275,352 261,369 260,376 225,437 219,458 215,461 209,478 209,488 204,493 204,504 199,510 199,526 194,534 194,556 189,566 189,672 194,681 194,699 198,703 199,715 204,723 209,744 214,749 214,755 219,760 225,776 239,790 251,808 278,834 283,835 305,854 349,875 358,875 365,880 376,880 392,886 470,885 474,881 490,880 493,876 515,870 535,860 560,840 565,839 624,781 640,755 647,749 649,765 645,773 644,795 639,805 639,826 634,833 629,857 598,898 545,944 554,952 575,951 613,915 629,894 630,887 637,880 639,882 639,894 635,899 634,910 629,918 624,941 619,948 619,955 609,980 608,994 599,1014 600,1043 609,1037 619,1022 619,1016 624,1012 630,994 634,991 640,968 650,954 651,944 662,921 669,922 680,955 685,959 696,987 706,1002 724,1013 747,1012 747,1004 731,968 722,960 721,954 702,924 697,898 703,886 720,886 746,896 754,896 757,892 745,880 718,864 710,855 703,853 676,826 675,814 671,807 671,795 681,765 694,752 704,747 734,747 738,752 755,759 772,775 788,802 788,812 793,821 788,846 788,949 792,954 793,971 798,975 798,984 809,998 823,998 829,987 824,972 824,954 819,948 814,918 804,899 805,886 814,886 827,896 847,902 851,906 858,906 865,911 872,911 877,916 920,927 938,926 944,921 961,916 982,893 983,882 988,876 987,864 952,865 939,870 914,870 892,874 881,870 868,870 846,859 840,852 839,842 834,836 834,825 829,817 831,814 836,814 841,819 847,819 886,839 890,838 880,820 871,812 869,804 826,777 811,762 806,762 772,733 764,731 728,698 738,691 744,682 756,676 795,676 805,680 841,681 862,691 872,691 877,696 883,696 887,701 904,707 964,771 975,778 982,774 983,754 956,722 919,696 906,683 908,681 924,686 929,691 940,691 947,696 955,696 961,701 969,701 975,706 987,707 991,711 1003,712 1008,716 1023,717 1034,722 1068,722 1067,717 1052,710 1042,701 1010,690 995,680 986,680 980,675 974,675 964,670 952,658 960,650 966,650 983,640 990,640 995,635 1001,635 1032,619 1039,611 1037,573 1031,578 1025,578 1021,583 1014,584 981,608 974,609 959,619 932,628 918,629 916,605 921,595 921,571 918,569 869,636 855,648 841,650 836,654 804,649 778,627 778,622 773,617 773,601 784,576 804,553 826,538 855,535 975,537 983,533 999,532 1006,527 1012,527 1016,522 1023,521 1028,505 1022,496 1012,496 1002,501 985,501 979,506 964,506 957,511 943,512 925,521 911,519 916,514 917,505 937,468 937,463 942,458 942,450 947,443 947,432 952,424 952,379 947,371 947,365 932,349 923,347 919,342 898,337 893,332 890,336 890,346 895,358 896,383 900,390 900,454 896,459 895,468 878,485 871,486 865,491 857,491 852,496 842,496 840,493 844,490 845,483 865,448 865,442 870,437 866,435 852,445 845,446 824,467 813,489 803,498 792,519 772,545 765,548 745,572 735,576 719,573 707,556 706,525 711,501 712,473 716,469 722,444 743,411 765,389 782,378 804,355 796,342 781,343 737,385 731,397 716,413 712,413 722,375 732,358 732,349 742,327 743,314 747,310 748,294 752,289 752,256 744,262 722,297 721,304 716,309 716,319 711,324 711,330 701,349 701,355 688,378 681,372 665,324 661,321 660,313 650,299 649,293 625,281 611,281 608,284 609,300 613,304 615,314 639,350 639,356 649,365 650,374 655,382 655,406 653,409 626,409 617,404 600,404 598,408 632,430 641,440 652,445 675,468 676,479 680,483 680,509 676,513 675,524 665,539 648,552 632,552 626,547 616,547 612,542 597,537 579,520 578,513 568,499 568,492 563,484 563,435 568,402 563,329 553,315 552,308 535,296 529,295 526,300 527,322 532,331 532,347 536,351 537,369 542,376 542,388 547,397 546,413 523,403 520,399 512,398 489,384 462,378 454,373 406,373 386,383 373,401 368,422 363,427 365,435 382,430 407,430 419,425 485,425 498,431 521,463 525,485 510,480 500,471 493,470 478,460 468,457 465,463 476,480 497,501 519,513 554,542 561,543 614,591 614,600 608,612 596,624 580,623 574,619 548,619 535,614 510,614 476,603 457,593 453,588 447,587 432,574 392,527 365,527 363,530 386,561 422,594 444,611 442,614 430,609 417,608 402,598 391,598 386,593 376,593 371,588 346,583 339,578 282,569 293,583 309,594 315,594 318,598 335,604 339,609 376,620 408,637 389,645 386,649 365,655 360,660 350,661 324,675 312,693 311,719 314,722 331,716 335,711 367,695 395,676 407,675 411,671 436,670 441,674 439,694 429,714 429,724 433,727 450,709 486,658 498,650 504,650 509,645 539,645 568,661 578,673 578,718 573,723 572,734 525,787 502,800 489,812 477,818 466,819 463,823 433,829 399,828 393,824 376,823 372,819 349,813 315,792 288,770 287,765 261,734 250,702 246,699 245,685 240,678 240,662 235,653 235,558 240,546 240,529 245,520 246,503 250,499 251,487 255,483 261,458 275,436 282,418 296,398 297,391 327,356 332,346 381,297 407,281 422,266 468,240 484,235 498,225 506,224 509,220 519,220 524,215 533,215 539,210 550,210 558,205 577,204 586,199 609,199 622,194 714,194 727,199 749,199 759,204 777,205 785,210 796,210 803,215 827,220 830,224 841,226 852,234 891,252 903,261 908,261 923,276 955,297 1003,345 1008,356 1023,370 1029,382 1038,391 1044,407 1064,436 1064,442 1079,469 1085,495 1089,498 1090,510 1095,518 1095,531 1105,555 1105,579 1110,593 1110,692 1105,705 1105,729 1095,754 1095,768 1090,775 1085,801 1080,807 1080,816 1075,823 1074,832 1065,846 1064,857 1054,867 1038,904 1008,949 998,958 982,981 947,1015 944,1022 908,1049 893,1064 862,1085 841,1095 831,1105 826,1105 791,1125 770,1131 765,1136 758,1136 744,1146 735,1146 729,1151 719,1151 713,1156 682,1162 678,1166 664,1167 656,1172 641,1172 633,1177 617,1177 610,1182 598,1182 589,1187 566,1187 555,1192 523,1192 506,1197 355,1200 406,1233 463,1260 472,1269 480,1270 518,1290 524,1290 529,1295 545,1300 559,1310 591,1321 596,1326 605,1326 622,1336 631,1336 636,1341 659,1347 672,1356 699,1362 702,1366 713,1367 718,1372 730,1372 752,1382 779,1387 799,1397 832,1403 840,1408 849,1399 851,1389 855,1385 855,1377 860,1370 860,1363 865,1356 865,1349 875,1334 875,1328 886,1312 908,1290 923,1280 932,1280 938,1275 993,1275 1004,1280 1026,1280 1035,1285 1057,1285 1067,1290 1111,1291 1153,1290 1159,1285 1165,1285 1187,1267 1188,1253 1192,1245 1188,1193 1179,1159 1199,1147 1206,1146 1215,1137 1231,1131 1244,1114 1238,1096 1218,1072 1260,1041 1259,1030 1255,1026 1254,1015 1244,993 1244,967 1267,947 1302,927 1333,920 1346,898 1347,879 1346,866 1336,852 1336,847 1280,775 1274,759 1259,739 1249,715 1249,708 1244,703 1244,693 1239,685 1239,665 1234,649 1234,619 1238,599 1234,513 1229,503 1228,480 1218,457 1218,446 1213,438 1213,427 1208,422 1208,413 1198,396 1197,385 1193,382 1187,365 1177,355 1177,349 1162,329 1161,323 1152,315 1151,308 1094,251 1042,214 1037,214 1027,206 1017,204 1012,199 1007,199 969,179 944,173 939,168 925,168 919,163 906,163 898,158 881,158 872,153 846,152 841,148 806,147 798,143 762,142 742,138 696,138 674,142 639,143 632,147 598,148 590,153 570,153 562,158 Z"/>
<path fill="#fff" d="M 662,615 670,614 689,620 701,637 700,663 688,675 683,675 678,680 658,680 643,669 635,657 635,638 641,628 Z"/>
</svg>